# xmcd
#
# Track frame offsets:
#	150
#	33463
#	76497
#	98977
#	113530
#	138688
#	160396
#	176599
#	203656
#	222430
#	242297
#	261903
#	290421
#	300717
#	332260
#
# Disc length: 4730 seconds
#
# Revision: 0
# Processed by: cddbd v1.4b42PL1 Copyright (c) Steve Scherf et al.
# Submitted via: EasyCDDAExtractor 4.5.0.1
#
DISCID=d012780f
DTITLE=John Mayall - Room To Move 1969 - 1974
DYEAR=1900
DGENRE=blues
TTITLE0=The Laws Must Change
TTITLE1=California
TTITLE2=Room To Move
TTITLE3=Don't Waste Mi Time
TTITLE4=Counting The Day
TTITLE5=When I Go
TTITLE6=To A Princes
TTITLE7=Nature's Disappearing
TTITLE8=Took The Car
TTITLE9=My Pretty Girl
TTITLE10=Prisons On The Road
TTITLE11=Accidental Suicide
TTITLE12=Boogie Albert
TTITLE13=Television Eye
TTITLE14=Nome Again
EXTD=
EXTT0=
EXTT1=
EXTT2=
EXTT3=
EXTT4=
EXTT5=
EXTT6=
EXTT7=
EXTT8=
EXTT9=
EXTT10=
EXTT11=
EXTT12=
EXTT13=
EXTT14=
PLAYORDER=
